<svg xmlns="http://www.w3.org/2000/svg" xmlns:xlink="http://www.w3.org/1999/xlink" viewBox="0 0 64 64"><defs><style>.cls-1{fill:#ffb369;}.cls-2{fill:url(#linear-gradient);}.cls-3{fill:url(#linear-gradient-2);}.cls-4{fill:url(#linear-gradient-3);}.cls-5{fill:url(#linear-gradient-4);}.cls-6{fill:url(#linear-gradient-5);}.cls-7{fill:#f0f7fc;}.cls-8{fill:url(#linear-gradient-6);}.cls-9{fill:url(#linear-gradient-7);}.cls-10{fill:url(#linear-gradient-8);}</style><linearGradient id="linear-gradient" x1="13.05" y1="60" x2="13.05" y2="42" gradientUnits="userSpaceOnUse"><stop offset="0" stop-color="#fe9661"/><stop offset="0.31" stop-color="#fe9f64"/><stop offset="1" stop-color="#ffb369"/></linearGradient><linearGradient id="linear-gradient-2" x1="31.08" y1="39.22" x2="41.52" y2="28.78" gradientUnits="userSpaceOnUse"><stop offset="0" stop-color="#d3e6f5"/><stop offset="1" stop-color="#f0f7fc"/></linearGradient><linearGradient id="linear-gradient-3" x1="21.45" y1="36.85" x2="27.15" y2="31.15" xlink:href="#linear-gradient-2"/><linearGradient id="linear-gradient-4" x1="30" y1="44" x2="30" y2="23" gradientUnits="userSpaceOnUse"><stop offset="0" stop-color="#54a5ff"/><stop offset="1" stop-color="#8ad3fe"/></linearGradient><linearGradient id="linear-gradient-5" x1="21.31" y1="14" x2="37.31" y2="14" xlink:href="#linear-gradient"/><linearGradient id="linear-gradient-6" x1="9.91" y1="53.72" x2="15.84" y2="48.49" gradientUnits="userSpaceOnUse"><stop offset="0" stop-color="#fe9661"/><stop offset="1" stop-color="#ffb369"/></linearGradient><linearGradient id="linear-gradient-7" x1="7.79" y1="55.61" x2="18.26" y2="46.38" xlink:href="#linear-gradient"/><linearGradient id="linear-gradient-8" x1="16.46" y1="51" x2="44.69" y2="51" xlink:href="#linear-gradient-4"/></defs><title>Investment</title><g id="Investment"><path class="cls-1" d="M57,44v2a2,2,0,0,1-2,2H43.66l1-3.46A2,2,0,0,0,42.69,42H55A2,2,0,0,1,57,44Z"/><rect class="cls-1" x="42" y="36" width="18" height="6" rx="2"/><path class="cls-1" d="M60,50v2a2,2,0,0,1-2,2H40V48H58A2,2,0,0,1,60,50Z"/><path class="cls-1" d="M57,56v2a2,2,0,0,1-2,2H37V54H55A2,2,0,0,1,57,56Z"/><path class="cls-2" d="M22.05,51A8.14,8.14,0,0,1,22,52a8.93,8.93,0,0,1-2.44,5.22A9,9,0,0,1,4.92,54.86,8.82,8.82,0,0,1,4.11,52a8.14,8.14,0,0,1-.06-1,7,7,0,0,1,.07-1,2.3,2.3,0,0,1,0-.26A8.22,8.22,0,0,1,4.57,48a9,9,0,0,1,8.48-6,8.79,8.79,0,0,1,3.41.67A9,9,0,0,1,21.53,48,8.22,8.22,0,0,1,22,49.71,7.84,7.84,0,0,1,22.05,51Z"/><path class="cls-3" d="M42.86,30.13a7,7,0,0,0-9.78,1.5l-3.56,4.84a1,1,0,0,0,.22,1.4,7,7,0,0,0,4.13,1.36,6.53,6.53,0,0,0,1.07-.09,6.9,6.9,0,0,0,4.58-2.77l3.56-4.84A1,1,0,0,0,42.86,30.13Z"/><path class="cls-4" d="M31.08,36.47l-3.56-4.84a7,7,0,0,0-9.78-1.5,1,1,0,0,0-.22,1.4l3.56,4.84a6.94,6.94,0,0,0,4.58,2.77,6.53,6.53,0,0,0,1.07.09,7,7,0,0,0,4.13-1.36A1,1,0,0,0,31.08,36.47Z"/><path class="cls-5" d="M30,23a1,1,0,0,0-1,1V43a1,1,0,0,0,2,0V24A1,1,0,0,0,30,23Z"/><path class="cls-1" d="M39.91,12.58a9.19,9.19,0,0,0-.46-1.91,10,10,0,0,0-18.85,0,9.66,9.66,0,0,0-.48,2,1.79,1.79,0,0,0,0,.23A7.87,7.87,0,0,0,20,14a9.72,9.72,0,0,0,.07,1.11,9.74,9.74,0,0,0,.9,3.18A10,10,0,0,0,40,14,7.73,7.73,0,0,0,39.91,12.58ZM38,14.89A8,8,0,0,1,22.8,17.43a7.47,7.47,0,0,1-.72-2.55A6.29,6.29,0,0,1,22,14a6,6,0,0,1,.06-.88,1,1,0,0,0,0-.16s0-.11,0-.12a7.27,7.27,0,0,1,.38-1.51,8,8,0,0,1,15.07,0,7.45,7.45,0,0,1,.38,1.53A7.9,7.9,0,0,1,38,14,6.55,6.55,0,0,1,38,14.89Z"/><path class="cls-6" d="M38,14a6.55,6.55,0,0,1-.05.89A8,8,0,0,1,22.8,17.43a7.47,7.47,0,0,1-.72-2.55A6.29,6.29,0,0,1,22,14a6,6,0,0,1,.06-.88,1,1,0,0,0,0-.16s0-.11,0-.12a7.27,7.27,0,0,1,.38-1.51,8,8,0,0,1,15.07,0,7.45,7.45,0,0,1,.38,1.53A7.9,7.9,0,0,1,38,14Z"/><path class="cls-7" d="M33,15.5a2.45,2.45,0,0,0-2.4-2.5h-.93a.51.51,0,0,1,0-1H32a1,1,0,0,0,0-2H31V9a1,1,0,0,0-2,0v1.12A2.5,2.5,0,0,0,29.69,15h.93a.51.51,0,0,1,0,1H28a1,1,0,0,0,0,2h1v1a1,1,0,0,0,2,0V18A2.47,2.47,0,0,0,33,15.5Z"/><path class="cls-8" d="M14,55v1a1,1,0,0,1-2,0V55H11a1,1,0,0,1,0-2h2.62a.51.51,0,0,0,0-1h-.93A2.5,2.5,0,0,1,12,47.12V46a1,1,0,0,1,2,0v1h1a1,1,0,0,1,0,2H12.69a.51.51,0,0,0,0,1h.93A2.5,2.5,0,0,1,14,55Z"/><path class="cls-9" d="M20,51a6.79,6.79,0,0,1,0,.78A7.09,7.09,0,0,1,19.33,54,7,7,0,0,1,6.72,54a6.58,6.58,0,0,1-.63-2.22A6.49,6.49,0,0,1,6,51a6.1,6.1,0,0,1,0-.77.68.68,0,0,0,0-.14s0-.09,0-.1a6.08,6.08,0,0,1,.33-1.32,7,7,0,0,1,13.15,0A6.31,6.31,0,0,1,19.93,50,7.56,7.56,0,0,1,20,51Z"/><path class="cls-7" d="M16,52.5A2.47,2.47,0,0,1,14,55v1a1,1,0,0,1-2,0V55H11a1,1,0,0,1,0-2h2.62a.51.51,0,0,0,0-1h-.93A2.5,2.5,0,0,1,12,47.12V46a1,1,0,0,1,2,0v1h1a1,1,0,0,1,0,2H12.69a.51.51,0,0,0,0,1h.93A2.45,2.45,0,0,1,16,52.5Z"/><path class="cls-10" d="M44.62,44.54l-1,3.46L40.73,58.54A2,2,0,0,1,38.8,60h-17a2,2,0,0,1-1.92-1.46l-.37-1.32A8.93,8.93,0,0,0,22,52a8.14,8.14,0,0,0,.06-1,7.84,7.84,0,0,0-.1-1.29A8.22,8.22,0,0,0,21.53,48a9,9,0,0,0-5.07-5.33A2,2,0,0,1,18,42H42.69A2,2,0,0,1,44.62,44.54Z"/></g></svg>