<?xml version="1.0" encoding="utf-8"?>
<!-- Generator: Adobe Illustrator 16.0.0, SVG Export Plug-In . SVG Version: 6.00 Build 0)  -->
<!DOCTYPE svg PUBLIC "-//W3C//DTD SVG 1.1//EN" "http://www.w3.org/Graphics/SVG/1.1/DTD/svg11.dtd">
<svg version="1.1" id="Layer_1" xmlns="http://www.w3.org/2000/svg" xmlns:xlink="http://www.w3.org/1999/xlink" x="0px" y="0px"
	 width="128px" height="128px" viewBox="0 0 128 128" enable-background="new 0 0 128 128" xml:space="preserve">
<g>
	<g>
		<g>
			<rect x="31.893" y="10.033" fill="#282D33" width="63.922" height="4"/>
		</g>
		<g>
			<polygon fill="#282D33" points="125.473,39.496 2.527,39.496 2.527,10.033 21.251,10.033 21.251,14.033 6.527,14.033 
				6.527,35.496 121.473,35.496 121.473,14.033 105.475,14.033 105.475,10.033 125.473,10.033 			"/>
		</g>
		<g>
			<g>
				<rect x="20.749" y="50.646" fill="#282D33" width="6.717" height="4"/>
			</g>
			<g>
				<rect x="34.046" y="50.646" fill="#282D33" width="6.719" height="4"/>
			</g>
			<g>
				<rect x="47.344" y="50.646" fill="#282D33" width="6.718" height="4"/>
			</g>
			<g>
				<rect x="60.644" y="50.646" fill="#282D33" width="6.714" height="4"/>
			</g>
			<g>
				<rect x="73.938" y="50.646" fill="#282D33" width="6.72" height="4"/>
			</g>
			<g>
				<rect x="87.234" y="50.646" fill="#282D33" width="6.722" height="4"/>
			</g>
			<g>
				<rect x="100.534" y="50.646" fill="#282D33" width="6.717" height="4"/>
			</g>
		</g>
		<g>
			<g>
				<rect x="20.749" y="63.175" fill="#282D33" width="6.717" height="4"/>
			</g>
			<g>
				<rect x="34.046" y="63.175" fill="#282D33" width="6.719" height="4"/>
			</g>
			<g>
				<rect x="47.344" y="63.175" fill="#282D33" width="6.718" height="4"/>
			</g>
			<g>
				<rect x="60.644" y="63.175" fill="#282D33" width="6.714" height="4"/>
			</g>
			<g>
				<rect x="73.938" y="63.175" fill="#282D33" width="6.72" height="4"/>
			</g>
			<g>
				<rect x="87.234" y="63.175" fill="#282D33" width="6.722" height="4"/>
			</g>
			<g>
				<rect x="100.534" y="63.175" fill="#282D33" width="6.717" height="4"/>
			</g>
		</g>
		<g>
			<g>
				<rect x="20.749" y="75.703" fill="#282D33" width="6.717" height="4"/>
			</g>
			<g>
				<rect x="34.046" y="75.703" fill="#282D33" width="6.719" height="4"/>
			</g>
			<g>
				<rect x="47.344" y="75.703" fill="#282D33" width="6.718" height="4"/>
			</g>
			<g>
				<rect x="60.644" y="75.703" fill="#282D33" width="6.714" height="4"/>
			</g>
		</g>
		<g>
			<g>
				<rect x="20.749" y="88.23" fill="#282D33" width="6.717" height="4"/>
			</g>
			<g>
				<rect x="34.046" y="88.23" fill="#282D33" width="6.719" height="4"/>
			</g>
			<g>
				<rect x="47.344" y="88.23" fill="#282D33" width="6.718" height="4"/>
			</g>
		</g>
		<g>
			<rect x="119.049" y="37.64" fill="#282D33" width="4" height="35.293"/>
		</g>
		<g>
			<polygon fill="#282D33" points="60.507,111.752 4.951,111.752 4.951,37.64 8.951,37.64 8.951,107.752 60.507,107.752 			"/>
		</g>
		<g>
			<g>
				<polygon fill="#282D33" points="108.414,26.209 96.415,26.209 96.415,22.209 104.414,22.209 104.414,4 96.415,4 96.415,0 
					108.414,0 				"/>
			</g>
			<g>
				<polygon fill="#282D33" points="33.582,26.209 21.585,26.209 21.585,22.209 29.582,22.209 29.582,4 21.585,4 21.585,0 33.582,0 
									"/>
			</g>
		</g>
		<g>
			<rect x="49.649" y="22.137" fill="#282D33" width="28.7" height="4"/>
		</g>
	</g>
	<g>
		<path fill="#282D33" d="M94.734,128c-15.755,0-28.573-12.705-28.573-28.322s12.818-28.322,28.573-28.322
			s28.572,12.705,28.572,28.322S110.489,128,94.734,128z M94.734,75.355c-13.55,0-24.573,10.911-24.573,24.322
			S81.185,124,94.734,124c13.549,0,24.572-10.911,24.572-24.322S108.283,75.355,94.734,75.355z"/>
	</g>
	<g>
		<polygon fill="#282D33" points="88.782,109.652 80.36,101.31 83.175,98.468 88.782,104.021 106.083,86.886 108.897,89.728 		"/>
	</g>
</g>
</svg>
